<?xml version="1.0" encoding="UTF-8" standalone="no"?>
<!-- Created with Inkscape (http://www.inkscape.org/) -->

<svg
   width="480"
   height="480"
   viewBox="0 0 127 127"
   version="1.1"
   id="svg1"
   inkscape:version="1.3 (0e150ed6c4, 2023-07-21)"
   sodipodi:docname="Destroyer1.svg"
   xmlns:inkscape="http://www.inkscape.org/namespaces/inkscape"
   xmlns:sodipodi="http://sodipodi.sourceforge.net/DTD/sodipodi-0.dtd"
   xmlns="http://www.w3.org/2000/svg"
   xmlns:svg="http://www.w3.org/2000/svg">
  <sodipodi:namedview
     id="namedview1"
     pagecolor="#ffffff"
     bordercolor="#000000"
     borderopacity="0.25"
     inkscape:showpageshadow="2"
     inkscape:pageopacity="0.0"
     inkscape:pagecheckerboard="0"
     inkscape:deskcolor="#d1d1d1"
     inkscape:document-units="px"
     inkscape:zoom="2.18125"
     inkscape:cx="240"
     inkscape:cy="240"
     inkscape:window-width="2400"
     inkscape:window-height="1261"
     inkscape:window-x="2391"
     inkscape:window-y="152"
     inkscape:window-maximized="1"
     inkscape:current-layer="g16" />
  <defs
     id="defs1" />
  <g
     inkscape:label="Layer 1"
     inkscape:groupmode="layer"
     id="layer1">
    <path
       id="rect2-0"
       style="fill:#6b6b6a;fill-opacity:1;stroke:#000000;stroke-width:0.264583;stroke-linecap:round;stroke-dasharray:none"
       d="M -76.427857,2.7883998 -90.862118,46.102552 H -101.64957 V 69.14869 l -25.17108,22.392432 6.37429,22.065838 18.79679,-4.33617 v 4.35168 h 10.787452 v -5.19814 l 14.434261,4.52893 14.434261,-4.52893 v 5.19814 h 10.787455 v -4.35168 l 18.796782,4.33617 6.37429,-22.065838 L -51.206141,69.14869 V 46.102552 h -10.787455 z" />
    <g
       id="g65"
       transform="matrix(1.0714046,0,0,1.0715536,-4.5341921,-4.5511035)"
       style="stroke-width:0.933289">
      <path
         id="rect2"
         style="fill:#6b6b6a;fill-opacity:1;stroke:none;stroke-width:0.246932;stroke-linecap:round;stroke-dasharray:none"
         d="M 63.5,8.2207861 49.065739,51.534939 H 38.278283 v 23.046138 l -25.171073,22.392432 6.374288,22.065831 18.796785,-4.33617 v 4.35168 h 10.787456 v -5.19814 L 63.5,118.38564 77.934261,113.85671 v 5.19814 h 10.787455 v -4.35168 L 107.5185,119.03934 113.89279,96.973509 88.721716,74.581077 V 51.534939 H 77.934261 Z" />
      <path
         style="fill:#525251;fill-opacity:1;stroke:none;stroke-width:0.246932;stroke-linecap:round;stroke-dasharray:none;stroke-opacity:1"
         d="M 99.927265,113.14524 88.721715,110.56027 77.934261,109.71381 63.5,114.24274 l -14.434262,-4.52893 -10.787454,0.84646 -11.20555,2.58497 -0.578789,0.34201 -2.161366,4.43301 13.945704,-3.21709 10.787455,-0.84646 14.434262,4.52893 14.434264,-4.52893 10.787454,0.84646 13.945702,3.21709 -2.12135,-4.40914 z"
         id="path50"
         sodipodi:nodetypes="ccccccc" />
      <path
         style="fill:#bfbfbf;fill-opacity:1;stroke:#000000;stroke-width:0.246932;stroke-linecap:round;stroke-dasharray:none"
         d="m 38.278284,114.70317 10.787454,-0.84646 v 5.19814 H 38.278284 Z"
         id="path3" />
      <path
         style="fill:#bfbfbf;fill-opacity:1;stroke:#000000;stroke-width:0.246932;stroke-linecap:round;stroke-dasharray:none"
         d="M 38.278284,74.581075 49.065738,51.534939 H 38.278284 Z"
         id="path4" />
      <path
         style="fill:#bfbfbf;fill-opacity:1;stroke:#000000;stroke-width:0.246932;stroke-linecap:round;stroke-dasharray:none"
         d="m 88.721718,114.70317 -10.787454,-0.84646 v 5.19814 h 10.787454 z"
         id="path5"
         inkscape:transform-center-x="-19.82799"
         inkscape:transform-center-y="-1.92986" />
      <path
         style="fill:#bfbfbf;fill-opacity:1;stroke:#000000;stroke-width:0.246932;stroke-linecap:round;stroke-dasharray:none"
         d="M 88.721718,74.581075 77.934264,51.534939 h 10.787454 z"
         id="path6"
         inkscape:transform-center-x="-19.82799"
         inkscape:transform-center-y="-55.327636" />
      <path
         style="fill:#8c969e;fill-opacity:1;stroke:none;stroke-width:0.246932;stroke-linecap:round"
         d="M 24.332579,117.92026 43.70986,78.177017 48.739007,75.398379 52.171441,56.438276 49.065738,51.534939 38.278284,74.581075 13.107211,96.973509 19.481499,119.03934 Z"
         id="path1"
         sodipodi:nodetypes="ccccccccc" />
      <path
         style="fill:#767e85;fill-opacity:1;stroke:none;stroke-width:0.246932;stroke-linecap:round;stroke-dasharray:none;stroke-opacity:1"
         d="m 26.493946,113.48725 -2.161367,4.43301 -4.851081,1.11908 -1.122554,-3.88594 1.122554,-0.25696 4.851081,-1.11908 2.015881,-0.46504 z"
         id="path48"
         sodipodi:nodetypes="cccccccc" />
      <path
         style="fill:none;fill-opacity:1;stroke:#000000;stroke-width:0.246932;stroke-linecap:round"
         d="M 24.332578,117.92026 43.70986,78.177017 48.739007,75.398379 52.171441,56.438276 49.065738,51.534939 38.278284,74.581075 13.107211,96.973509 19.481499,119.03934 Z"
         id="path2"
         sodipodi:nodetypes="ccccccccc" />
      <g
         id="g11"
         transform="translate(-0.132291,2.6635026)"
         style="stroke-width:0.933289">
        <path
           id="rect8"
           style="fill:#bfbfbf;fill-opacity:1;stroke:#000000;stroke-width:0.246932;stroke-linecap:round"
           d="M 18.074942,94.804573 31.701008,82.991002 41.601604,101.88955 26.58622,110.84762 Z"
           sodipodi:nodetypes="ccccc" />
        <path
           style="fill:none;fill-opacity:1;stroke:#000000;stroke-width:0.246932;stroke-linecap:round;stroke-dasharray:none"
           d="m 39.110873,97.071411 -4.830916,3.835539 0.317991,2.14099 -2.576656,2.04576 -1.556492,-1.15393 -5.305493,4.21233"
           id="path8" />
        <path
           style="fill:none;fill-opacity:1;stroke:#000000;stroke-width:0.246932;stroke-linecap:round;stroke-dasharray:none"
           d="m 37.41409,93.87312 -4.830916,3.835535 0.317992,2.140995 -2.576656,2.04575 -1.556493,-1.15393 -5.305492,4.21234"
           id="path9" />
        <path
           style="fill:none;fill-opacity:1;stroke:#000000;stroke-width:0.246932;stroke-linecap:round;stroke-dasharray:none"
           d="m 35.712573,90.67858 -4.830915,3.83554 0.317991,2.140994 -2.576656,2.045754 -1.556493,-1.15393 -5.305492,4.212332"
           id="path10" />
        <path
           style="fill:none;fill-opacity:1;stroke:#000000;stroke-width:0.246932;stroke-linecap:round;stroke-dasharray:none"
           d="m 34.018317,87.47828 -4.830916,3.83554 0.317992,2.14099 -2.576656,2.04576 -1.556493,-1.15393 -5.305492,4.212329"
           id="path11" />
      </g>
      <path
         style="fill:#8c969e;fill-opacity:1;stroke:none;stroke-width:0.246932;stroke-linecap:round"
         d="M 102.66742,117.92026 83.290139,78.177017 78.260992,75.398379 74.828558,56.438276 77.934261,51.534939 88.721715,74.581075 113.89279,96.973509 107.5185,119.03934 Z"
         id="path39"
         sodipodi:nodetypes="ccccccccc" />
      <path
         style="fill:#767e85;fill-opacity:1;stroke:none;stroke-width:0.246932;stroke-linecap:round;stroke-dasharray:none;stroke-opacity:1"
         d="m 100.50606,113.48725 2.16136,4.43301 4.85108,1.11908 1.12256,-3.88594 -1.12256,-0.25696 -4.85108,-1.11908 -2.01588,-0.46504 z"
         id="path51"
         sodipodi:nodetypes="cccccccc"
         inkscape:transform-center-x="-41.073559"
         inkscape:transform-center-y="-2.20981" />
      <path
         style="fill:none;fill-opacity:1;stroke:#000000;stroke-width:0.246932;stroke-linecap:round"
         d="M 102.66742,117.92026 83.290139,78.177017 78.260992,75.398379 74.828558,56.438276 77.934261,51.534939 88.721715,74.581075 113.89279,96.973509 107.5185,119.03934 Z"
         id="path40"
         sodipodi:nodetypes="ccccccccc" />
      <g
         id="g16"
         inkscape:transform-center-x="-33.794016"
         inkscape:transform-center-y="35.944994"
         transform="matrix(-1,0,0,1,127.13229,2.6635026)"
         style="stroke-width:0.933289">
        <path
           id="path12"
           style="fill:#bfbfbf;fill-opacity:1;stroke:#000000;stroke-width:0.246932;stroke-linecap:round"
           d="M 18.074942,94.804573 31.701008,82.991002 41.601604,101.88955 26.58622,110.84762 Z"
           sodipodi:nodetypes="ccccc" />
        <path
           style="fill:none;fill-opacity:1;stroke:#000000;stroke-width:0.246932;stroke-linecap:round;stroke-dasharray:none"
           d="m 39.110873,97.071411 -4.830916,3.835539 0.317991,2.14099 -2.576656,2.04576 -1.556492,-1.15393 -5.305493,4.21233"
           id="path13" />
        <path
           style="fill:none;fill-opacity:1;stroke:#000000;stroke-width:0.246932;stroke-linecap:round;stroke-dasharray:none"
           d="m 37.41409,93.87312 -4.830916,3.835535 0.317992,2.140995 -2.576656,2.04575 -1.556493,-1.15393 -5.305492,4.21234"
           id="path14" />
        <path
           style="fill:none;fill-opacity:1;stroke:#000000;stroke-width:0.246932;stroke-linecap:round;stroke-dasharray:none"
           d="m 35.712573,90.67858 -4.830915,3.83554 0.317991,2.140994 -2.576656,2.045754 -1.556493,-1.15393 -5.305492,4.212332"
           id="path15" />
        <path
           style="fill:none;fill-opacity:1;stroke:#000000;stroke-width:0.246932;stroke-linecap:round;stroke-dasharray:none"
           d="m 34.018317,87.47828 -4.830916,3.83554 0.317992,2.14099 -2.576656,2.04576 -1.556493,-1.15393 -5.305492,4.212329"
           id="path16" />
      </g>
      <ellipse
         style="fill:#bfbfbf;fill-opacity:1;stroke:#000000;stroke-width:0.246932;stroke-linecap:round;stroke-dasharray:none"
         id="path17"
         cx="63.5"
         cy="93.879021"
         rx="12.904715"
         ry="12.901665" />
      <path
         style="fill:#803300;fill-opacity:1;stroke:#000000;stroke-width:0.246932;stroke-linecap:round;stroke-opacity:1"
         d="m 67.380981,32.148623 -3.88098,-11.032817 -3.88098,11.032817 3.88098,2.533464 z"
         id="path22"
         sodipodi:nodetypes="ccccc"
         inkscape:transform-center-x="-1.9404905"
         inkscape:transform-center-y="17.243875" />
      <path
         style="fill:#803300;fill-opacity:1;stroke:#000000;stroke-width:0.246932;stroke-linecap:round;stroke-opacity:1"
         d="m 67.380981,32.148623 -3.88098,-11.032817 -3.88098,11.032817 3.88098,2.533464 z"
         id="path28"
         sodipodi:nodetypes="ccccc"
         inkscape:transform-center-x="-1.9404905"
         inkscape:transform-center-y="17.243875" />
      <path
         style="fill:#803300;fill-opacity:1;stroke:#000000;stroke-width:0.246932;stroke-linecap:round;stroke-opacity:1"
         d="m 66.809844,39.006035 3.360663,0.664909 -2.093953,-5.557441 -4.576555,2.977094 -4.576555,-2.977094 -2.093953,5.557441 3.360663,-0.664909 3.309845,1.937101 z"
         id="path32"
         inkscape:transform-center-x="-3.335254"
         inkscape:transform-center-y="-0.1834985"
         sodipodi:nodetypes="ccccccccc" />
      <path
         style="fill:none;fill-opacity:1;stroke:#000000;stroke-width:0.0987728;stroke-linecap:round;stroke-dasharray:none;stroke-opacity:1"
         d="m 58.923443,34.113503 1.266711,4.892532 3.309845,-1.915437 3.309845,1.915437 1.266709,-4.892532"
         id="path33" />
      <path
         style="fill:none;fill-opacity:1;stroke:#000000;stroke-width:0.0987728;stroke-linecap:round;stroke-dasharray:none;stroke-opacity:1"
         d="M 63.499999,34.682088 V 21.115806"
         id="path34" />
      <path
         style="fill:none;fill-opacity:1;stroke:#000000;stroke-width:0.0987728;stroke-linecap:round;stroke-dasharray:none;stroke-opacity:1"
         d="m 59.619019,32.148623 3.88098,-2.663502 3.88098,2.663502"
         id="path35"
         sodipodi:nodetypes="ccc" />
      <path
         style="fill:#8c969e;fill-opacity:1;stroke:#000000;stroke-width:0.246932;stroke-linecap:round;stroke-dasharray:none;stroke-opacity:1"
         d="M 71.603306,32.854675 63.447083,14.6287 55.29086,32.854675 63.5,8.2207861 Z"
         id="path38"
         inkscape:transform-center-x="-4.0781115"
         inkscape:transform-center-y="9.1129875"
         sodipodi:nodetypes="ccc" />
      <path
         id="path49"
         style="fill:none;fill-opacity:1;stroke:#000000;stroke-width:0.246932;stroke-linecap:round;stroke-dasharray:none"
         d="M 63.5,8.2207861 49.065739,51.534939 H 38.278283 v 23.046138 l -25.171073,22.392432 6.374288,22.065831 18.796785,-4.33617 v 4.35168 h 10.787456 v -5.19814 L 63.5,118.38564 77.934261,113.85671 v 5.19814 h 10.787455 v -4.35168 L 107.5185,119.03934 113.89279,96.973509 88.721716,74.581077 V 51.534939 H 77.934261 Z" />
      <path
         sodipodi:type="star"
         style="fill:#00ccff;fill-opacity:1;stroke:#000000;stroke-width:0.246932;stroke-linecap:round;stroke-dasharray:none;stroke-opacity:1"
         id="path60"
         inkscape:flatsided="true"
         sodipodi:sides="3"
         sodipodi:cx="63.552914"
         sodipodi:cy="49.986626"
         sodipodi:r1="2.1623485"
         sodipodi:r2="1.0811743"
         sodipodi:arg1="0.52359878"
         sodipodi:arg2="1.5707963"
         inkscape:rounded="0"
         inkscape:randomized="0"
         d="m 65.425562,51.0678 -3.745297,0 1.872649,-3.243523 z"
         inkscape:transform-center-y="-0.54058777" />
      <path
         sodipodi:type="star"
         style="fill:#00ccff;fill-opacity:1;stroke:#000000;stroke-width:0.246932;stroke-linecap:round;stroke-dasharray:none;stroke-opacity:1"
         id="path61"
         inkscape:flatsided="true"
         sodipodi:sides="3"
         sodipodi:cx="63.552914"
         sodipodi:cy="49.986626"
         sodipodi:r1="2.1623485"
         sodipodi:r2="1.0811743"
         sodipodi:arg1="0.52359878"
         sodipodi:arg2="1.5707963"
         inkscape:rounded="0"
         inkscape:randomized="0"
         d="m 65.425562,51.0678 -3.745297,0 1.872649,-3.243523 z"
         inkscape:transform-center-y="0.27982813"
         transform="rotate(-45,101.16899,90.315216)"
         inkscape:transform-center-x="-0.27982848" />
      <path
         sodipodi:type="star"
         style="fill:#00ccff;fill-opacity:1;stroke:#000000;stroke-width:0.246932;stroke-linecap:round;stroke-dasharray:none;stroke-opacity:1"
         id="path62"
         inkscape:flatsided="true"
         sodipodi:sides="3"
         sodipodi:cx="63.552914"
         sodipodi:cy="49.986626"
         sodipodi:r1="2.1623485"
         sodipodi:r2="1.0811743"
         sodipodi:arg1="0.52359878"
         sodipodi:arg2="1.5707963"
         inkscape:rounded="0"
         inkscape:randomized="0"
         d="m 65.425562,51.0678 -3.745297,0 1.872649,-3.243523 z"
         inkscape:transform-center-y="-5.2020134"
         transform="matrix(-0.70710678,-0.70710678,-0.70710678,0.70710678,161.23079,97.989993)"
         inkscape:transform-center-x="-17.166383" />
      <path
         sodipodi:type="star"
         style="fill:#00ccff;fill-opacity:1;stroke:#000000;stroke-width:0.183823;stroke-linecap:round;stroke-dasharray:none;stroke-opacity:1"
         id="path63"
         inkscape:flatsided="true"
         sodipodi:sides="3"
         sodipodi:cx="63.552914"
         sodipodi:cy="49.986626"
         sodipodi:r1="2.1623485"
         sodipodi:r2="1.0811743"
         sodipodi:arg1="0.52359878"
         sodipodi:arg2="1.5707963"
         inkscape:rounded="0"
         inkscape:randomized="0"
         d="m 65.425562,51.0678 -3.745297,0 1.872649,-3.243523 z"
         inkscape:transform-center-y="0.54058813"
         transform="matrix(1.8044909,0,0,-1,-51.180655,159.98106)"
         inkscape:transform-center-x="1.1682079e-06" />
      <rect
         style="fill:#bfbfbf;fill-opacity:1;stroke:#000000;stroke-width:0.246932;stroke-linecap:round;stroke-dasharray:none;stroke-opacity:1"
         id="rect65"
         width="8.4063997"
         height="27.386007"
         x="59.296799"
         y="58.06385" />
      <path
         sodipodi:type="star"
         style="fill:#bfbfbf;fill-opacity:1;stroke:#000000;stroke-width:0.238145;stroke-linecap:round;stroke-dasharray:none;stroke-opacity:1"
         id="path65"
         inkscape:flatsided="true"
         sodipodi:sides="6"
         sodipodi:cx="63.5"
         sodipodi:cy="93.879021"
         sodipodi:r1="12.698195"
         sodipodi:r2="10.99696"
         sodipodi:arg1="1.0471976"
         sodipodi:arg2="1.5707963"
         inkscape:rounded="0"
         inkscape:randomized="0"
         d="m 69.849097,104.87598 -12.698195,0 -6.349097,-10.99696 6.349098,-10.996959 12.698195,0 6.349097,10.99696 z"
         inkscape:transform-center-y="-1.1827278e-06"
         transform="matrix(1.0369047,0,0,1.0369047,-2.3434435,-3.4645705)" />
    </g>
  </g>
</svg>
