<?xml version="1.0" encoding="UTF-8" standalone="no"?>
<!-- Created with Inkscape (http://www.inkscape.org/) -->

<svg
   width="480"
   height="480"
   viewBox="0 0 127 127"
   version="1.1"
   id="svg1"
   inkscape:version="1.3 (0e150ed6c4, 2023-07-21)"
   sodipodi:docname="Mine1.svg"
   xmlns:inkscape="http://www.inkscape.org/namespaces/inkscape"
   xmlns:sodipodi="http://sodipodi.sourceforge.net/DTD/sodipodi-0.dtd"
   xmlns="http://www.w3.org/2000/svg"
   xmlns:svg="http://www.w3.org/2000/svg">
  <sodipodi:namedview
     id="namedview1"
     pagecolor="#ffffff"
     bordercolor="#000000"
     borderopacity="0.25"
     inkscape:showpageshadow="2"
     inkscape:pageopacity="0.0"
     inkscape:pagecheckerboard="0"
     inkscape:deskcolor="#d1d1d1"
     inkscape:document-units="px"
     inkscape:zoom="1.61875"
     inkscape:cx="240"
     inkscape:cy="240"
     inkscape:window-width="1920"
     inkscape:window-height="991"
     inkscape:window-x="-9"
     inkscape:window-y="-9"
     inkscape:window-maximized="1"
     inkscape:current-layer="layer1" />
  <defs
     id="defs1" />
  <g
     inkscape:label="Layer 1"
     inkscape:groupmode="layer"
     id="layer1">
    <path
       d="m 33.118909,37.047351 c -0.02276,0.02271 -0.0455,0.04545 -0.06821,0.06821 -1.256342,1.449948 -2.407535,2.987808 -3.444751,4.601786 -1.037433,1.614129 -1.95825,3.300336 -2.755388,5.045687 -0.79692,1.745117 -1.46819,3.544957 -2.008662,5.385718 -0.540609,1.84091 -0.949036,3.718119 -1.222148,5.617228 -0.272952,1.899132 -0.4099,3.81537 -0.409794,5.734017 -1.06e-4,1.918647 0.136842,3.834885 0.409794,5.734017 0.273112,1.899109 0.681539,3.776318 1.222148,5.617228 0.540472,1.840761 1.211742,3.640601 2.008662,5.385718 0.797138,1.745351 1.717955,3.431558 2.755388,5.045687 1.037216,1.613978 2.188409,3.151838 3.444751,4.601786 0.02254,0.02259 0.0451,0.04516 0.0677,0.0677 l 4.011641,-4.011641 c -0.602212,-0.652702 -1.179179,-1.328274 -1.72961,-2.0252 C 34.33089,82.443369 33.378651,80.889654 32.552535,79.268547 31.7265,77.647327 31.029125,75.963674 30.466874,74.233195 29.904611,72.502615 29.479205,70.730494 29.1946,68.93326 29.075817,67.956685 28.998576,66.975487 28.96309,65.992354 h 9.502262 C 38.351527,65.165688 38.278745,64.333873 38.247278,63.5 c 0.03147,-0.833873 0.104249,-1.665688 0.218074,-2.492354 H 28.96309 c 0.03549,-0.983133 0.112727,-1.964331 0.23151,-2.940906 0.284605,-1.797234 0.710011,-3.569355 1.272274,-5.299935 0.562251,-1.730479 1.259626,-3.414132 2.085661,-5.035352 0.826116,-1.621107 1.778355,-3.174822 2.847888,-4.646744 0.550589,-0.697111 1.127729,-1.372855 1.730127,-2.025716 z"
       style="fill:#5c5c5b;stroke:#000000;stroke-width:0.264583;stroke-linecap:round;fill-opacity:1"
       id="path40" />
    <path
       d="M 61.007646,88.534648 V 98.03691 C 60.024513,98.001424 59.043315,97.924183 58.06674,97.8054 56.269506,97.520795 54.497385,97.095389 52.766805,96.533126 51.036326,95.970875 49.352673,95.2735 47.731453,94.447465 46.110346,93.621349 44.556631,92.66911 43.084709,91.599577 c -0.696926,-0.550431 -1.372498,-1.127398 -2.0252,-1.72961 l -4.011641,4.011641 c 0.02254,0.02259 0.0451,0.04516 0.0677,0.0677 1.449948,1.256342 2.987808,2.407535 4.601786,3.444751 1.614129,1.037433 3.300336,1.95825 5.045687,2.755385 1.745117,0.79692 3.544957,1.46819 5.385718,2.00867 1.84091,0.5406 3.718119,0.94903 5.617228,1.22214 1.899132,0.27295 3.81537,0.4099 5.734017,0.4098 1.918647,1e-4 3.834885,-0.13685 5.734017,-0.4098 1.899109,-0.27311 3.776318,-0.68154 5.617228,-1.22214 1.840761,-0.54048 3.640601,-1.21175 5.385718,-2.00867 1.745351,-0.797135 3.431558,-1.717952 5.045687,-2.755385 1.613978,-1.037216 3.151838,-2.188409 4.601786,-3.444751 0.02294,-0.02288 0.04585,-0.04579 0.06873,-0.06873 l -4.011642,-4.011642 c -0.653021,0.602584 -1.328937,1.179897 -2.026233,1.730644 -1.471922,1.069533 -3.025637,2.021772 -4.646744,2.847888 -1.62122,0.826035 -3.304873,1.52341 -5.035352,2.085661 -1.73058,0.562263 -3.502701,0.987669 -5.299935,1.272274 -0.976575,0.118783 -1.957773,0.196024 -2.940906,0.23151 v -9.502262 c -0.826668,0.113825 -1.65848,0.186607 -2.492354,0.218074 -0.833874,-0.03147 -1.665686,-0.104249 -2.492354,-0.218074 z"
       style="fill:#5c5c5b;stroke:#000000;stroke-width:0.264583;stroke-linecap:round;fill-opacity:1"
       id="path43" />
    <path
       d="m 93.877991,37.051485 -3.940328,3.940328 c 0.18766,0.214411 0.372678,0.431126 0.555005,0.65009 0.381496,0.471189 0.750597,0.952295 1.106909,1.442806 0.356321,0.490462 0.699747,0.990178 1.029911,1.498616 0.33025,0.508379 0.647139,1.025327 0.95033,1.550293 0.303107,0.524946 0.592425,1.057747 0.867647,1.597835 0.275243,0.540152 0.536302,1.087427 0.782898,1.641244 0.246474,0.553831 0.478412,1.11403 0.695565,1.680001 0.217323,0.565968 0.419794,1.13754 0.607198,1.714107 0.187268,0.576579 0.359411,1.157973 0.516247,1.743563 0.157004,0.585643 0.298647,1.175308 0.424781,1.768367 0.126,0.593005 0.236454,1.189218 0.331246,1.788005 0.09478,0.598648 0.17387,1.199686 0.237194,1.802474 0.03604,0.378959 0.06584,0.758492 0.0894,1.138432 H 88.61733 c 0.03405,0.301765 0.06264,0.604124 0.08578,0.906921 0.03313,0.527826 0.04968,1.056568 0.04961,1.585433 -0.03147,0.833874 -0.104249,1.665686 -0.218074,2.492354 h 9.608199 c -0.002,0.0298 -0.0041,0.0596 -0.0062,0.0894 -0.0035,0.04772 -0.0071,0.09544 -0.01085,0.143143 -0.0037,0.04772 -0.0075,0.09544 -0.01137,0.143144 -0.004,0.04772 -0.0082,0.09544 -0.0124,0.143144 -0.004,0.04772 -0.0082,0.09544 -0.0124,0.143143 -0.0044,0.04755 -0.0089,0.0951 -0.01344,0.142627 -0.0046,0.04772 -0.0092,0.09544 -0.01395,0.143144 -0.0047,0.04755 -0.0095,0.0951 -0.01447,0.142627 -0.0049,0.04772 -0.0099,0.09544 -0.01499,0.143144 -0.0052,0.04755 -0.01058,0.0951 -0.01602,0.142627 -0.0052,0.04755 -0.01058,0.0951 -0.01602,0.142627 -0.0056,0.04755 -0.01127,0.0951 -0.01705,0.142627 -0.0058,0.04738 -0.01162,0.09475 -0.01757,0.14211 -0.0059,0.04755 -0.01196,0.0951 -0.01809,0.142627 -0.0061,0.04756 -0.0123,0.0951 -0.0186,0.142627 -0.0063,0.04738 -0.01265,0.09475 -0.01912,0.14211 -0.0064,0.04738 -0.01299,0.09475 -0.01964,0.14211 -0.0068,0.04738 -0.01368,0.09476 -0.02067,0.14211 -0.0068,0.04738 -0.01368,0.09475 -0.02067,0.14211 -0.0071,0.04738 -0.01437,0.09476 -0.0217,0.142111 -0.0073,0.04721 -0.01472,0.09441 -0.02222,0.141593 -0.284605,1.797234 -0.710011,3.569355 -1.272274,5.299935 -0.562251,1.730479 -1.259626,3.414132 -2.085661,5.035352 -0.826116,1.621107 -1.778355,3.174822 -2.847888,4.646744 -0.550747,0.697296 -1.12806,1.373212 -1.730644,2.026233 l 4.011642,4.011642 c 0.02294,-0.02288 0.04585,-0.04579 0.06873,-0.06873 1.256342,-1.449948 2.407535,-2.987808 3.444751,-4.601786 1.037433,-1.614129 1.95825,-3.300336 2.755385,-5.045687 0.79692,-1.745117 1.46819,-3.544957 2.00867,-5.385718 0.5406,-1.84091 0.94903,-3.718119 1.22214,-5.617228 0.007,-0.04632 0.0132,-0.09266 0.0196,-0.13901 0.006,-0.04632 0.0128,-0.09266 0.0191,-0.139009 0.006,-0.04632 0.0128,-0.09266 0.0191,-0.13901 0.006,-0.04633 0.0121,-0.09266 0.0181,-0.139009 0.006,-0.0465 0.0118,-0.09301 0.0176,-0.139527 0.006,-0.04633 0.0118,-0.09266 0.0176,-0.139009 0.006,-0.0465 0.0111,-0.09301 0.0165,-0.139527 0.006,-0.04633 0.0111,-0.09266 0.0165,-0.139009 0.005,-0.0465 0.0108,-0.09301 0.016,-0.139527 0.005,-0.0465 0.0101,-0.09301 0.015,-0.139526 0.005,-0.0465 0.0101,-0.09301 0.015,-0.139527 0.005,-0.0465 0.01,-0.09301 0.0145,-0.139526 0.005,-0.0465 0.009,-0.09301 0.0139,-0.139526 0.005,-0.04667 0.009,-0.09336 0.0134,-0.140043 0.004,-0.0465 0.009,-0.09301 0.0129,-0.139527 0.004,-0.04667 0.008,-0.09336 0.0124,-0.140043 0.004,-0.0465 0.008,-0.09301 0.0119,-0.139526 0.004,-0.04667 0.008,-0.09336 0.0114,-0.140043 0.004,-0.04667 0.008,-0.09336 0.0114,-0.140044 0.004,-0.0465 0.007,-0.09301 0.0103,-0.139526 0.003,-0.04668 0.007,-0.09336 0.01,-0.140043 0.003,-0.04667 0.007,-0.09336 0.01,-0.140043 0.003,-0.04668 0.006,-0.09336 0.009,-0.140043 0.003,-0.04668 0.006,-0.09336 0.009,-0.140043 0.003,-0.04668 0.005,-0.09336 0.008,-0.140044 0.003,-0.04685 0.005,-0.0937 0.008,-0.140559 0.002,-0.04668 0.005,-0.09336 0.007,-0.140044 0.002,-0.04668 0.004,-0.09336 0.006,-0.140043 0.002,-0.04668 0.004,-0.09336 0.006,-0.140043 0.002,-0.04685 0.004,-0.0937 0.006,-0.14056 0.002,-0.04668 0.004,-0.09336 0.005,-0.140043 0.002,-0.04668 0.003,-0.09336 0.005,-0.140043 0.001,-0.04685 0.003,-0.0937 0.004,-0.14056 0.001,-0.04668 0.002,-0.09336 0.004,-0.140043 0.001,-0.04685 0.002,-0.0937 0.003,-0.14056 9.4e-4,-0.04668 0.002,-0.09336 0.003,-0.140043 7.7e-4,-0.04685 0.001,-0.09371 0.002,-0.14056 7.7e-4,-0.04668 0.001,-0.09336 0.002,-0.140043 4.3e-4,-0.04685 7.7e-4,-0.09371 0.001,-0.14056 4.3e-4,-0.04668 7.7e-4,-0.09336 0.001,-0.140043 8e-5,-0.04685 8e-5,-0.09371 0,-0.14056 -10e-6,-0.659341 -0.0162,-1.318594 -0.0486,-1.97714 -0.0323,-0.65841 -0.0807,-1.31594 -0.14521,-1.971973 -0.0647,-0.656104 -0.14553,-1.310533 -0.24236,-1.962671 -0.0967,-0.652063 -0.20939,-1.301667 -0.33797,-1.948201 -0.12854,-0.646642 -0.27293,-1.290043 -0.43304,-1.929598 -0.16026,-0.639493 -0.33618,-1.274968 -0.52762,-1.905827 -0.19131,-0.63095 -0.39808,-1.25712 -0.62012,-1.877922 -0.22206,-0.620674 -0.45933,-1.235816 -0.71158,-1.844848 -0.25233,-0.609184 -0.51958,-1.212092 -0.801504,-1.808159 C 99.640114,45.67771 99.34357,45.088759 99.032715,44.507361 98.721973,43.925868 98.396999,43.35208 98.058097,42.786536 97.719215,42.221069 97.366499,41.663995 97.000281,41.115837 96.633915,40.56779 96.254146,40.028809 95.861332,39.499398 95.468663,38.969834 95.063049,38.449979 94.644869,37.94032 94.393575,37.640335 94.137918,37.344022 93.877991,37.051485 Z"
       style="fill:#5c5c5b;stroke:#000000;stroke-width:0.264583;stroke-linecap:round;fill-opacity:1"
       id="path42" />
    <path
       d="m 63.5,23.209953 c -1.918647,-1.06e-4 -3.834885,0.136842 -5.734017,0.409794 -1.899109,0.273112 -3.776318,0.681539 -5.617228,1.222148 -1.840761,0.540472 -3.640601,1.211742 -5.385718,2.008662 -1.745351,0.797138 -3.431558,1.717955 -5.045687,2.755388 -1.613978,1.037216 -3.151838,2.188409 -4.601786,3.444751 -0.02276,0.02271 -0.0455,0.04545 -0.06821,0.06821 l 4.011642,4.011641 c 0.652861,-0.602398 1.328605,-1.179538 2.025716,-1.730127 1.471922,-1.069533 3.025637,-2.021772 4.646744,-2.847888 1.62122,-0.826035 3.304873,-1.52341 5.035352,-2.085661 1.73058,-0.562263 3.502701,-0.987669 5.299935,-1.272274 0.976575,-0.118783 1.957773,-0.196024 2.940906,-0.23151 v 9.502262 c 0.826668,-0.113825 1.65848,-0.186607 2.492354,-0.218074 0.528865,-7e-5 1.057607,0.01647 1.585433,0.04961 0.302797,0.02314 0.605156,0.05174 0.906921,0.08578 v -9.514665 c 0.37994,0.02356 0.759473,0.05336 1.138432,0.0894 0.602788,0.06332 1.203826,0.142417 1.802474,0.237194 0.598787,0.09479 1.195,0.205246 1.788005,0.331246 0.593059,0.126134 1.182724,0.267777 1.768367,0.424781 0.58559,0.156836 1.166984,0.328979 1.743563,0.516247 0.576567,0.187404 1.148139,0.389875 1.714107,0.607198 0.565971,0.217153 1.12617,0.449091 1.680001,0.695565 0.553817,0.246596 1.101092,0.507655 1.641244,0.782898 0.540088,0.275222 1.072889,0.56454 1.597835,0.867647 0.524966,0.303191 1.041914,0.62008 1.550293,0.95033 0.508438,0.330164 1.008154,0.67359 1.498616,1.029911 0.490511,0.356312 0.971617,0.725413 1.442806,1.106909 0.218964,0.182327 0.435679,0.367345 0.65009,0.555005 l 3.940328,-3.940328 C 89.655978,32.862082 89.359665,32.606425 89.05968,32.355131 88.550021,31.936951 88.030166,31.531337 87.500602,31.138668 86.971191,30.745854 86.43221,30.366085 85.884163,29.999719 85.336005,29.633501 84.778931,29.280785 84.213464,28.941903 83.64792,28.603001 83.074132,28.278027 82.492639,27.967285 81.911241,27.65643 81.32229,27.359886 80.726339,27.077934 80.130272,26.796013 79.527364,26.528762 78.91818,26.276432 78.309148,26.024182 77.694006,25.786913 77.073332,25.564848 76.45253,25.342809 75.82636,25.136039 75.19541,24.944731 74.564551,24.753294 73.929076,24.577366 73.289583,24.417114 72.650028,24.257 72.006627,24.112605 71.359985,23.984066 70.713451,23.855491 70.063847,23.742801 69.411784,23.646102 68.759646,23.549269 68.105217,23.468456 67.449113,23.403739 66.79308,23.339211 66.13555,23.290793 65.47714,23.258529 64.818594,23.226161 64.159341,23.209964 63.5,23.209953 Z"
       style="fill:#5c5c5b;stroke:#000000;stroke-width:0.264583;stroke-linecap:round;fill-opacity:1"
       id="path41" />
    <circle
       style="fill:#8f8f8e;stroke:#000000;stroke-width:0.264583;stroke-linecap:round;fill-opacity:1"
       id="circle40"
       cx="63.5"
       cy="63.5"
       r="25.252895" />
    <path
       sodipodi:type="star"
       style="fill:#5c5c5b;fill-opacity:1;stroke:#000000;stroke-width:0.264583;stroke-linecap:round;stroke-dasharray:none;stroke-opacity:1"
       id="path53"
       inkscape:flatsided="true"
       sodipodi:sides="6"
       sodipodi:cx="63.5"
       sodipodi:cy="63.5"
       sodipodi:r1="16.962118"
       sodipodi:r2="14.689625"
       sodipodi:arg1="1.0471976"
       sodipodi:arg2="1.5707963"
       inkscape:rounded="0"
       inkscape:randomized="0"
       d="m 71.981058,78.189626 -16.962118,-10e-7 -8.481058,-14.689626 8.48106,-14.689625 16.962118,10e-7 8.481058,14.689626 z"
       transform="rotate(90,63.5,63.5)" />
    <path
       sodipodi:type="star"
       style="fill:#6b6b6a;stroke:#000000;stroke-width:0.264583;stroke-linecap:round;stroke-dasharray:none;stroke-opacity:1;fill-opacity:1"
       id="path44"
       inkscape:flatsided="true"
       sodipodi:sides="6"
       sodipodi:cx="63.5"
       sodipodi:cy="63.5"
       sodipodi:r1="13.305303"
       sodipodi:r2="11.522731"
       sodipodi:arg1="-1.0471976"
       sodipodi:arg2="-0.52359878"
       inkscape:rounded="0"
       inkscape:randomized="0"
       d="m 70.152651,51.97727 6.652652,11.522729 -6.652651,11.522731 -13.305303,0 -6.652652,-11.522729 6.652651,-11.522731 z" />
    <path
       style="fill:none;stroke:#000000;stroke-width:0.264583;stroke-linecap:round;stroke-dasharray:none;stroke-opacity:1"
       d="M 53.521022,57.738634 41.630351,50.873551"
       id="path47" />
    <path
       style="fill:none;stroke:#000000;stroke-width:0.264583;stroke-linecap:round;stroke-dasharray:none;stroke-opacity:1"
       d="M 73.478976,57.738634 85.369648,50.873551"
       id="path48" />
    <path
       style="fill:none;stroke:#000000;stroke-width:0.264583;stroke-linecap:round;stroke-dasharray:none;stroke-opacity:1"
       d="M 53.521022,69.261366 41.630351,76.126449"
       id="path49"
       inkscape:transform-center-x="15.924314"
       inkscape:transform-center-y="9.1939075" />
    <path
       style="fill:none;stroke:#000000;stroke-width:0.264583;stroke-linecap:round;stroke-dasharray:none;stroke-opacity:1"
       d="m 73.478976,69.261366 11.890672,6.865083"
       id="path50"
       inkscape:transform-center-x="-15.924312"
       inkscape:transform-center-y="9.1939075" />
    <path
       style="fill:none;stroke:#000000;stroke-width:0.264583;stroke-linecap:round;stroke-dasharray:none;stroke-opacity:1"
       d="M 63.499999,51.977268 V 38.247275"
       id="path51" />
    <path
       style="fill:none;stroke:#000000;stroke-width:0.264583;stroke-linecap:round;stroke-dasharray:none;stroke-opacity:1"
       d="M 63.499999,75.02273 V 88.752724"
       id="path52" />
    <g
       id="g72"
       style="display:inline;stroke:#000000;stroke-opacity:1;fill:#00ccff;fill-opacity:1">
      <circle
         style="fill:#00ccff;fill-opacity:1;stroke:#000000;stroke-width:0.264583;stroke-linecap:round;stroke-dasharray:none;stroke-opacity:1"
         id="path54"
         cx="48.810375"
         cy="55.01894"
         r="0.66803002"
         inkscape:transform-center-x="14.689625"
         inkscape:transform-center-y="-8.48106" />
      <circle
         style="fill:#00ccff;fill-opacity:1;stroke:#000000;stroke-width:0.264583;stroke-linecap:round;stroke-dasharray:none;stroke-opacity:1"
         id="circle54"
         cx="-37.93224"
         cy="78.261551"
         r="0.66803002"
         inkscape:transform-center-x="14.689629"
         inkscape:transform-center-y="8.4810585"
         transform="rotate(-60)" />
      <circle
         style="fill:#00ccff;fill-opacity:1;stroke:#000000;stroke-width:0.264583;stroke-linecap:round;stroke-dasharray:none;stroke-opacity:1"
         id="circle55"
         cx="-101.43224"
         cy="14.761551"
         r="0.66803002"
         inkscape:transform-center-y="16.962124"
         transform="rotate(-120)" />
      <circle
         style="fill:#00ccff;fill-opacity:1;stroke:#000000;stroke-width:0.264583;stroke-linecap:round;stroke-dasharray:none;stroke-opacity:1"
         id="circle56"
         cx="-78.189629"
         cy="-71.981064"
         r="0.66803002"
         inkscape:transform-center-y="8.4810638"
         transform="scale(-1)"
         inkscape:transform-center-x="-14.689629" />
      <circle
         style="fill:#00ccff;fill-opacity:1;stroke:#000000;stroke-width:0.264583;stroke-linecap:round;stroke-dasharray:none;stroke-opacity:1"
         id="circle57"
         cx="8.5529842"
         cy="-95.223679"
         r="0.66803002"
         inkscape:transform-center-y="-8.4810591"
         transform="rotate(120)"
         inkscape:transform-center-x="-14.689633" />
      <circle
         style="fill:#00ccff;fill-opacity:1;stroke:#000000;stroke-width:0.264583;stroke-linecap:round;stroke-dasharray:none;stroke-opacity:1"
         id="circle58"
         cx="72.052986"
         cy="-31.723679"
         r="0.66803002"
         inkscape:transform-center-y="-16.962123"
         transform="rotate(60)"
         inkscape:transform-center-x="-5.0510333e-06" />
      <circle
         style="fill:#00ccff;fill-opacity:1;stroke:#000000;stroke-width:0.264583;stroke-linecap:round;stroke-dasharray:none;stroke-opacity:1"
         id="circle59"
         cx="47.180523"
         cy="-15.617673"
         r="0.66803002"
         inkscape:transform-center-y="-30.449305"
         transform="rotate(60)"
         inkscape:transform-center-x="26.384437" />
      <circle
         style="fill:#00ccff;fill-opacity:1;stroke:#000000;stroke-width:0.264583;stroke-linecap:round;stroke-dasharray:none;stroke-opacity:1"
         id="circle60"
         cx="52.685493"
         cy="-16.992861"
         r="0.66803002"
         inkscape:transform-center-y="-26.369455"
         transform="rotate(60)"
         inkscape:transform-center-x="22.441004" />
      <circle
         style="fill:#00ccff;fill-opacity:1;stroke:#000000;stroke-width:0.264583;stroke-linecap:round;stroke-dasharray:none;stroke-opacity:1"
         id="circle60-5"
         cx="75.101013"
         cy="-55.954113"
         r="0.66803002"
         inkscape:transform-center-y="-26.437671"
         transform="rotate(60)"
         inkscape:transform-center-x="-22.50819" />
      <circle
         style="fill:#00ccff;fill-opacity:1;stroke:#000000;stroke-width:0.264583;stroke-linecap:round;stroke-dasharray:none;stroke-opacity:1"
         id="circle60-7"
         cx="73.658752"
         cy="-61.3367"
         r="0.66803002"
         inkscape:transform-center-y="-30.378"
         transform="rotate(60)"
         inkscape:transform-center-x="-26.448517" />
      <circle
         style="fill:#00ccff;fill-opacity:1;stroke:#000000;stroke-width:0.264583;stroke-linecap:round;stroke-dasharray:none;stroke-opacity:1"
         id="circle61"
         cx="-62.804703"
         cy="-79.117676"
         r="0.66803002"
         inkscape:transform-center-y="-26.384434"
         transform="rotate(150)"
         inkscape:transform-center-x="-30.449306" />
      <circle
         style="fill:#00ccff;fill-opacity:1;stroke:#000000;stroke-width:0.264583;stroke-linecap:round;stroke-dasharray:none;stroke-opacity:1"
         id="circle62"
         cx="-57.299732"
         cy="-80.492859"
         r="0.66803002"
         inkscape:transform-center-y="-22.441005"
         transform="rotate(150)"
         inkscape:transform-center-x="-26.369454" />
      <circle
         style="fill:#00ccff;fill-opacity:1;stroke:#000000;stroke-width:0.264583;stroke-linecap:round;stroke-dasharray:none;stroke-opacity:1"
         id="circle63"
         cx="-34.884212"
         cy="-119.45411"
         r="0.66803002"
         inkscape:transform-center-y="22.508187"
         transform="rotate(150)"
         inkscape:transform-center-x="-26.437669" />
      <circle
         style="fill:#00ccff;fill-opacity:1;stroke:#000000;stroke-width:0.264583;stroke-linecap:round;stroke-dasharray:none;stroke-opacity:1"
         id="circle64"
         cx="-36.326473"
         cy="-124.8367"
         r="0.66803002"
         inkscape:transform-center-y="26.448517"
         transform="rotate(150)"
         inkscape:transform-center-x="-30.378" />
      <circle
         style="fill:#00ccff;fill-opacity:1;stroke:#000000;stroke-width:0.264583;stroke-linecap:round;stroke-dasharray:none;stroke-opacity:1"
         id="circle65"
         cx="-126.3047"
         cy="30.86755"
         r="0.66803002"
         inkscape:transform-center-y="30.449307"
         transform="rotate(-120)"
         inkscape:transform-center-x="-26.384434" />
      <circle
         style="fill:#00ccff;fill-opacity:1;stroke:#000000;stroke-width:0.264583;stroke-linecap:round;stroke-dasharray:none;stroke-opacity:1"
         id="circle66"
         cx="-120.79973"
         cy="29.492367"
         r="0.66803002"
         inkscape:transform-center-y="26.369451"
         transform="rotate(-120)"
         inkscape:transform-center-x="-22.441003" />
      <circle
         style="fill:#00ccff;fill-opacity:1;stroke:#000000;stroke-width:0.264583;stroke-linecap:round;stroke-dasharray:none;stroke-opacity:1"
         id="circle67"
         cx="-98.384209"
         cy="-9.4688835"
         r="0.66803002"
         inkscape:transform-center-y="26.437666"
         transform="rotate(-120)"
         inkscape:transform-center-x="22.508189" />
      <circle
         style="fill:#00ccff;fill-opacity:1;stroke:#000000;stroke-width:0.264583;stroke-linecap:round;stroke-dasharray:none;stroke-opacity:1"
         id="circle68"
         cx="-99.826469"
         cy="-14.851475"
         r="0.66803002"
         inkscape:transform-center-y="30.377997"
         transform="rotate(-120)"
         inkscape:transform-center-x="26.448519" />
      <circle
         style="fill:#00ccff;fill-opacity:1;stroke:#000000;stroke-width:0.264583;stroke-linecap:round;stroke-dasharray:none;stroke-opacity:1"
         id="circle69"
         cx="-16.319477"
         cy="94.367546"
         r="0.66803002"
         inkscape:transform-center-y="26.384431"
         transform="rotate(-30)"
         inkscape:transform-center-x="30.449308" />
      <circle
         style="fill:#00ccff;fill-opacity:1;stroke:#000000;stroke-width:0.264583;stroke-linecap:round;stroke-dasharray:none;stroke-opacity:1"
         id="circle70"
         cx="-10.814503"
         cy="92.992363"
         r="0.66803002"
         inkscape:transform-center-y="22.441"
         transform="rotate(-30)"
         inkscape:transform-center-x="26.369452" />
      <circle
         style="fill:#00ccff;fill-opacity:1;stroke:#000000;stroke-width:0.264583;stroke-linecap:round;stroke-dasharray:none;stroke-opacity:1"
         id="circle71"
         cx="11.601017"
         cy="54.031116"
         r="0.66803002"
         inkscape:transform-center-y="-22.508188"
         transform="rotate(-30)"
         inkscape:transform-center-x="26.437666" />
      <circle
         style="fill:#00ccff;fill-opacity:1;stroke:#000000;stroke-width:0.264583;stroke-linecap:round;stroke-dasharray:none;stroke-opacity:1"
         id="circle72"
         cx="10.158756"
         cy="48.648525"
         r="0.66803002"
         inkscape:transform-center-y="-26.448518"
         transform="rotate(-30)"
         inkscape:transform-center-x="30.377997" />
    </g>
  </g>
</svg>
